# Blender 4.3.0
# www.blender.org
mtllib screwdriver.mtl
o Cylinder.005
v -0.000000 0.378118 15.454294
v 0.000000 1.929721 15.526946
v 0.212148 0.378118 15.556459
v 0.155347 1.929721 15.601757
v 0.264545 0.378118 15.786023
v 0.193715 1.929721 15.769856
v 0.117733 0.378118 15.970119
v 0.086211 1.929721 15.904661
v -0.117733 0.378118 15.970119
v -0.086211 1.929721 15.904661
v -0.264545 0.378118 15.786023
v -0.193715 1.929721 15.769856
v -0.212148 0.378118 15.556459
v -0.155347 1.929721 15.601757
v -0.000000 0.826685 15.507266
v 0.170733 0.826685 15.589487
v 0.212901 0.826685 15.774236
v 0.094750 0.826685 15.922392
v -0.094750 0.826685 15.922392
v -0.212901 0.826685 15.774236
v -0.170733 0.826685 15.589487
v 0.127336 0.649209 15.609363
v 0.158785 0.649209 15.747151
v 0.070666 0.649209 15.857649
v -0.070666 0.649209 15.857649
v -0.158785 0.649209 15.747151
v -0.127336 0.649209 15.609363
v 0.000000 0.649209 15.548041
v 0.057746 1.962643 15.679591
v 0.000000 1.962643 15.651782
v 0.072008 1.962643 15.742078
v 0.032047 1.962643 15.792188
v -0.032047 1.962643 15.792188
v -0.072008 1.962643 15.742078
v -0.057746 1.962643 15.679591
v -0.000000 0.350699 15.666189
v 0.046482 0.350699 15.688574
v 0.057962 0.350699 15.738872
v 0.025796 0.350699 15.779207
v -0.025796 0.350699 15.779207
v -0.057962 0.350699 15.738872
v -0.046482 0.350699 15.688574
v -0.000000 -0.846458 15.668028
v 0.045044 -0.846458 15.689720
v 0.056169 -0.846458 15.738462
v 0.024998 -0.846458 15.777551
v -0.024998 -0.846458 15.777551
v -0.056169 -0.846458 15.738462
v -0.045044 -0.846458 15.689720
v 0.000000 -1.231718 15.708681
v 0.000201 -1.231718 15.715067
v 0.000251 -1.231718 15.729416
v 0.000112 -1.231718 15.740922
v -0.000111 -1.231718 15.740922
v -0.000250 -1.231718 15.729416
v -0.000201 -1.231718 15.715067
v 0.131854 1.962643 15.620492
v 0.000000 1.962643 15.556995
v 0.164419 1.962643 15.763169
v 0.073173 1.962643 15.877588
v -0.073173 1.962643 15.877588
v -0.164419 1.962643 15.763169
v -0.131854 1.962643 15.620492
v 0.057746 1.986668 15.679591
v 0.000000 1.986668 15.651782
v 0.072008 1.986668 15.742078
v 0.032047 1.986668 15.792188
v -0.032047 1.986668 15.792188
v -0.072008 1.986668 15.742078
v -0.057746 1.986668 15.679591
vn 0.4338 0.0161 -0.9009
vn 0.9748 0.0161 -0.2225
vn 0.7817 0.0161 0.6234
vn -0.0000 0.0161 0.9999
vn -0.7817 0.0161 0.6234
vn 0.3351 0.6352 -0.6959
vn -0.9748 0.0161 -0.2225
vn -0.4338 0.0161 -0.9009
vn 0.1111 -0.9898 0.0886
vn -0.4249 -0.2027 -0.8823
vn -0.9428 -0.2546 -0.2152
vn -0.7417 -0.3164 0.5915
vn -0.0000 -0.3427 0.9394
vn 0.7417 -0.3164 0.5915
vn 0.9428 -0.2546 -0.2152
vn 0.4249 -0.2027 -0.8823
vn 0.4142 0.2975 -0.8602
vn 0.9206 0.3290 -0.2101
vn 0.7273 0.3669 0.5800
vn -0.0000 0.3832 0.9237
vn -0.7273 0.3669 0.5800
vn -0.9206 0.3290 -0.2101
vn -0.4142 0.2975 -0.8602
vn -0.0000 -0.0000 1.0000
vn 0.6039 0.6352 0.4816
vn -0.7530 0.6352 -0.1719
vn -0.0000 0.6352 0.7724
vn -0.3351 0.6352 -0.6959
vn 0.7530 0.6352 -0.1719
vn -0.6039 0.6352 0.4816
vn -0.4339 -0.0014 -0.9010
vn -0.1386 -0.9898 -0.0316
vn -0.0000 -0.9898 0.1422
vn -0.0617 -0.9898 -0.1281
vn 0.1386 -0.9898 -0.0316
vn -0.1111 -0.9898 0.0886
vn 0.0617 -0.9898 -0.1281
vn 0.8442 -0.1195 0.5225
vn -0.7818 -0.0014 0.6235
vn 0.7818 -0.0014 0.6235
vn 0.4339 -0.0014 -0.9010
vn -0.9749 -0.0014 -0.2225
vn -0.0000 -0.0014 1.0000
vn 0.9749 -0.0014 -0.2225
vn -0.0004 -1.0000 -0.0000
vn 0.5245 -0.1029 -0.8452
vn -0.9761 -0.1313 -0.1729
vn -0.0000 -0.0946 0.9955
vn 0.9761 -0.1313 -0.1729
vn -0.5245 -0.1029 -0.8452
vn -0.8442 -0.1195 0.5225
vn -0.0000 1.0000 -0.0000
vn 0.9749 -0.0000 -0.2225
vn -0.4339 -0.0000 -0.9010
vn -0.7818 -0.0000 0.6235
vn 0.7818 -0.0000 0.6235
vn 0.4339 -0.0000 -0.9010
vn -0.9749 -0.0000 -0.2225
vt 1.000000 0.644550
vt 1.000000 1.000000
vt 0.857143 1.000000
vt 0.857143 0.644550
vt 0.714286 1.000000
vt 0.714286 0.644550
vt 0.571429 1.000000
vt 0.571429 0.644550
vt 0.428571 1.000000
vt 0.428571 0.644550
vt 0.285714 1.000000
vt 0.285714 0.644550
vt 0.142857 1.000000
vt 0.142857 0.644550
vt 0.000000 1.000000
vt 0.000000 0.644550
vt 0.714286 0.500000
vt 0.571429 0.500000
vt 0.142857 0.543839
vt 0.000000 0.543839
vt 0.285714 0.543839
vt 0.428571 0.543839
vt 0.571429 0.543839
vt 0.714286 0.543839
vt 0.857143 0.543839
vt 1.000000 0.543839
vt 1.000000 0.500000
vt 0.857143 0.500000
vt 0.428571 0.500000
vt 0.285714 0.500000
vt 0.142857 0.500000
vt 0.000000 0.500000
vt 0.204395 0.155300
vt 0.295605 0.155300
vt 0.750000 0.490000
vt 0.937640 0.399638
vt 0.983983 0.196595
vt 0.854132 0.033767
vt 0.645868 0.033767
vt 0.516017 0.196595
vt 0.562360 0.399638
vt 0.250000 0.355109
vt 0.332178 0.315535
vt 0.437640 0.399638
vt 0.250000 0.490000
vt 0.352474 0.226611
vt 0.483983 0.196595
vt 0.354132 0.033767
vt 0.145868 0.033767
vt 0.147526 0.226611
vt 0.016017 0.196595
vt 0.167822 0.315535
vt 0.062360 0.399638
s 0
usemtl Material.001
f 33/33/24 32/34/24 67/34/24 68/33/24
f 42/31/31 36/32/31 43/32/31 49/31/31
f 45/17/38 46/18/38 53/18/38 52/17/38
f 40/29/39 41/30/39 48/30/39 47/29/39
f 38/17/40 39/18/40 46/18/40 45/17/40
f 36/27/41 37/28/41 44/28/41 43/27/41
f 41/30/42 42/31/42 49/31/42 48/30/42
f 39/18/43 40/29/43 47/29/43 46/18/43
f 37/28/44 38/17/44 45/17/44 44/28/44
f 50/35/45 51/36/45 52/37/45 53/38/45 54/39/45 55/40/45 56/41/45
f 43/27/46 44/28/46 51/28/46 50/27/46
f 48/30/47 49/31/47 56/31/47 55/30/47
f 46/18/48 47/29/48 54/29/48 53/18/48
f 44/28/49 45/17/49 52/17/49 51/28/49
f 49/31/50 43/32/50 50/32/50 56/31/50
f 47/29/51 48/30/51 55/30/51 54/29/51
f 64/43/52 65/42/52 70/52/52 69/50/52 68/33/52 67/34/52 66/46/52
f 31/46/53 29/43/53 64/43/53 66/46/53
f 30/42/54 35/52/54 70/52/54 65/42/54
f 34/50/55 33/33/55 68/33/55 69/50/55
f 32/34/56 31/46/56 66/46/56 67/34/56
f 29/43/57 30/42/57 65/42/57 64/43/57
f 35/52/58 34/50/58 69/50/58 70/52/58
usemtl Material.007
f 15/1/1 2/2/1 4/3/1 16/4/1
f 16/4/2 4/3/2 6/5/2 17/6/2
f 17/6/3 6/5/3 8/7/3 18/8/3
f 18/8/4 8/7/4 10/9/4 19/10/4
f 19/10/5 10/9/5 12/11/5 20/12/5
f 4/3/6 2/2/6 58/2/6 57/3/6
f 20/12/7 12/11/7 14/13/7 21/14/7
f 21/14/8 14/13/8 2/15/8 15/16/8
f 5/17/9 7/18/9 39/18/9 38/17/9
f 27/19/10 21/14/10 15/16/10 28/20/10
f 26/21/11 20/12/11 21/14/11 27/19/11
f 25/22/12 19/10/12 20/12/12 26/21/12
f 24/23/13 18/8/13 19/10/13 25/22/13
f 23/24/14 17/6/14 18/8/14 24/23/14
f 22/25/15 16/4/15 17/6/15 23/24/15
f 28/26/16 15/1/16 16/4/16 22/25/16
f 1/27/17 28/26/17 22/25/17 3/28/17
f 3/28/18 22/25/18 23/24/18 5/17/18
f 5/17/19 23/24/19 24/23/19 7/18/19
f 7/18/20 24/23/20 25/22/20 9/29/20
f 9/29/21 25/22/21 26/21/21 11/30/21
f 11/30/22 26/21/22 27/19/22 13/31/22
f 13/31/23 27/19/23 28/20/23 1/32/23
f 8/7/25 6/5/25 59/5/25 60/7/25
f 14/13/26 12/11/26 62/11/26 63/13/26
f 10/9/27 8/7/27 60/7/27 61/9/27
f 2/15/28 14/13/28 63/13/28 58/15/28
f 6/5/29 4/3/29 57/3/29 59/5/29
f 12/11/30 10/9/30 61/9/30 62/11/30
f 11/30/32 13/31/32 42/31/32 41/30/32
f 7/18/33 9/29/33 40/29/33 39/18/33
f 13/31/34 1/32/34 36/32/34 42/31/34
f 3/28/35 5/17/35 38/17/35 37/28/35
f 9/29/36 11/30/36 41/30/36 40/29/36
f 1/27/37 3/28/37 37/28/37 36/27/37
f 30/42/52 29/43/52 57/44/52 58/45/52
f 29/43/52 31/46/52 59/47/52 57/44/52
f 31/46/52 32/34/52 60/48/52 59/47/52
f 32/34/52 33/33/52 61/49/52 60/48/52
f 33/33/52 34/50/52 62/51/52 61/49/52
f 34/50/52 35/52/52 63/53/52 62/51/52
f 35/52/52 30/42/52 58/45/52 63/53/52
o Cylinder
v 0.000000 0.812749 16.264217
v 0.000000 1.323522 16.234501
v 0.110063 0.812749 16.299978
v 0.127530 1.323522 16.275938
v 0.178086 0.812749 16.393604
v 0.206348 1.323522 16.384420
v 0.178086 0.812749 16.509331
v 0.206348 1.323522 16.518515
v 0.110063 0.812749 16.602957
v 0.127530 1.323522 16.626997
v 0.000000 0.812749 16.638718
v 0.000000 1.323522 16.668434
v -0.110063 0.812749 16.602957
v -0.127530 1.323522 16.626997
v -0.178086 0.812749 16.509331
v -0.206348 1.323522 16.518515
v -0.178086 0.812749 16.393604
v -0.206348 1.323522 16.384420
v -0.110063 0.812749 16.299978
v -0.127530 1.323522 16.275938
v 0.049037 2.534580 16.383974
v -0.000000 2.534580 16.368040
v 0.079344 2.534580 16.425688
v 0.079344 2.534580 16.477247
v 0.049037 2.534580 16.518961
v -0.000000 2.534580 16.534895
v -0.049037 2.534580 16.518961
v -0.079344 2.534580 16.477247
v -0.079344 2.534580 16.425688
v -0.049037 2.534580 16.383974
v -0.268137 1.860915 16.538591
v -0.268137 1.860915 16.364344
v -0.165718 1.860915 16.679558
v -0.000000 1.860915 16.733402
v 0.165718 1.860915 16.679558
v 0.268137 1.860915 16.538591
v -0.000000 1.860915 16.169533
v 0.165718 1.860915 16.223377
v 0.268137 1.860915 16.364344
v -0.165718 1.860915 16.223377
v -0.229912 2.197748 16.526171
v -0.142093 2.197748 16.647043
v -0.000000 2.197748 16.693211
v 0.142093 2.197748 16.647043
v 0.229912 2.197748 16.526171
v -0.000000 2.197748 16.209724
v 0.229912 2.197748 16.376764
v -0.142093 2.197748 16.255892
v -0.229912 2.197748 16.376764
v 0.142093 2.197748 16.255892
v -0.178086 1.596615 16.393604
v 0.110063 1.596615 16.299978
v -0.178086 1.596615 16.509331
v -0.110063 1.596615 16.602957
v -0.000000 1.596615 16.638718
v 0.110063 1.596615 16.602957
v 0.178086 1.596615 16.509331
v -0.000000 1.596615 16.264217
v 0.178086 1.596615 16.393604
v -0.110063 1.596615 16.299978
v -0.161843 1.437659 16.398882
v 0.100024 1.437659 16.313795
v -0.161843 1.437659 16.504053
v -0.100025 1.437659 16.589140
v -0.000000 1.437659 16.621639
v 0.100024 1.437659 16.589140
v 0.161843 1.437659 16.504053
v -0.000000 1.437659 16.281296
v 0.161843 1.437659 16.398882
v -0.100025 1.437659 16.313795
v -0.000000 1.068136 16.310797
v 0.082684 1.068136 16.337664
v 0.133785 1.068136 16.407999
v 0.133785 1.068136 16.494936
v 0.082684 1.068136 16.565271
v -0.000000 1.068136 16.592138
v -0.082684 1.068136 16.565271
v -0.133785 1.068136 16.494936
v -0.133785 1.068136 16.407999
v -0.082684 1.068136 16.337664
v 0.000000 0.779781 16.318008
v 0.078446 0.779781 16.343496
v 0.126928 0.779781 16.410227
v 0.126928 0.779781 16.492708
v 0.078446 0.779781 16.559439
v 0.000000 0.779781 16.584927
v -0.078446 0.779781 16.559439
v -0.126928 0.779781 16.492708
v -0.126928 0.779781 16.410227
v -0.078446 0.779781 16.343496
v 0.000000 0.731426 16.318008
v 0.078446 0.731426 16.343496
v 0.126928 0.731426 16.410227
v 0.126928 0.731426 16.492708
v 0.078446 0.731426 16.559439
v 0.000000 0.731426 16.584927
v -0.078446 0.731426 16.559439
v -0.126928 0.731426 16.492708
v -0.126928 0.731426 16.410227
v -0.078446 0.731426 16.343496
v -0.000000 0.729705 16.368603
v 0.048707 0.729705 16.384428
v 0.078809 0.729705 16.425861
v 0.078809 0.729705 16.477074
v 0.048707 0.729705 16.518507
v -0.000000 0.729705 16.534332
v -0.048707 0.729705 16.518507
v -0.078809 0.729705 16.477074
v -0.078809 0.729705 16.425861
v -0.048707 0.729705 16.384428
v -0.000000 -1.456344 16.368603
v 0.048707 -1.456344 16.384428
v 0.078809 -1.456344 16.425861
v 0.078809 -1.456344 16.477074
v 0.048707 -1.456344 16.518507
v -0.000000 -1.456344 16.534332
v -0.048707 -1.456344 16.518507
v -0.078809 -1.456344 16.477074
v -0.078809 -1.456344 16.425861
v -0.048707 -1.456344 16.384428
v 0.002746 -1.629951 16.403223
v 0.004443 -1.629951 16.433041
v 0.004443 -1.629951 16.469894
v 0.002746 -1.629951 16.499712
v -0.002746 -1.629951 16.499712
v -0.004443 -1.629951 16.469894
v -0.004443 -1.629951 16.433041
v -0.002746 -1.629951 16.403223
vn 0.2973 -0.2733 -0.9148
vn 0.7782 -0.2733 -0.5654
vn 0.9619 -0.2733 -0.0000
vn 0.7782 -0.2733 0.5654
vn 0.2973 -0.2733 0.9148
vn -0.2973 -0.2733 0.9148
vn -0.7782 -0.2733 0.5654
vn -0.9619 -0.2733 -0.0000
vn -0.9129 0.4081 -0.0000
vn -0.7782 -0.2733 -0.5654
vn -0.2973 -0.2733 -0.9148
vn 0.1674 -0.8406 0.5152
vn -0.0000 1.0000 -0.0000
vn -0.7386 0.4081 0.5366
vn -0.2821 0.4081 0.8683
vn 0.2821 0.4081 0.8683
vn 0.7386 0.4081 0.5366
vn 0.2821 0.4081 -0.8683
vn 0.9129 0.4081 -0.0000
vn 0.7386 0.4081 -0.5366
vn -0.2821 0.4081 -0.8683
vn -0.7386 0.4081 -0.5366
vn -0.7658 -0.3225 -0.5564
vn -0.2925 -0.3225 -0.9002
vn 0.7658 -0.3225 -0.5564
vn 0.9466 -0.3225 -0.0000
vn 0.2925 -0.3225 -0.9002
vn 0.7658 -0.3225 0.5564
vn 0.2925 -0.3225 0.9002
vn -0.2925 -0.3225 0.9002
vn -0.7658 -0.3225 0.5564
vn -0.9466 -0.3225 -0.0000
vn -0.8039 0.1128 -0.5840
vn -0.3070 0.1128 -0.9450
vn 0.8039 0.1128 -0.5840
vn 0.9936 0.1128 -0.0000
vn 0.3070 0.1128 -0.9450
vn 0.8039 0.1128 0.5840
vn 0.3070 0.1128 0.9450
vn -0.3070 0.1128 0.9450
vn -0.8039 0.1128 0.5840
vn -0.9936 0.1128 -0.0000
vn -0.9948 -0.1017 -0.0000
vn -0.8048 -0.1017 0.5847
vn -0.3074 -0.1017 0.9461
vn 0.3074 -0.1017 0.9461
vn 0.8048 -0.1017 0.5847
vn 0.3074 -0.1017 -0.9461
vn 0.9948 -0.1017 -0.0000
vn 0.8048 -0.1017 -0.5847
vn -0.3074 -0.1017 -0.9461
vn -0.8048 -0.1017 -0.5847
vn -0.7537 0.3633 -0.5476
vn -0.2879 0.3633 -0.8861
vn 0.7537 0.3633 -0.5476
vn 0.9317 0.3633 -0.0000
vn 0.2879 0.3633 -0.8861
vn 0.7537 0.3633 0.5476
vn 0.2879 0.3633 0.8861
vn -0.2879 0.3633 0.8861
vn -0.7537 0.3633 0.5476
vn -0.9317 0.3633 -0.0000
vn -0.3045 0.1709 -0.9371
vn -0.7971 0.1709 -0.5791
vn -0.9853 0.1709 -0.0000
vn -0.7971 0.1709 0.5791
vn -0.3045 0.1709 0.9371
vn 0.3045 0.1709 0.9371
vn 0.7971 0.1709 0.5791
vn 0.9853 0.1709 -0.0000
vn 0.7971 0.1709 -0.5791
vn 0.3045 0.1709 -0.9371
vn -0.8090 -0.0000 0.5878
vn 0.4382 -0.8406 0.3184
vn 0.1674 -0.8406 -0.5152
vn 0.5417 -0.8406 -0.0000
vn 0.4382 -0.8406 -0.3184
vn -0.1674 -0.8406 -0.5152
vn -0.4382 -0.8406 -0.3184
vn -0.5417 -0.8406 -0.0000
vn -0.4382 -0.8406 0.3184
vn -0.1674 -0.8406 0.5152
vn 0.0289 -0.9994 0.0210
vn 0.8090 -0.0000 0.5878
vn 0.3090 -0.0000 -0.9511
vn -1.0000 -0.0000 -0.0000
vn 0.3090 -0.0000 0.9511
vn 0.8090 -0.0000 -0.5878
vn -0.8090 -0.0000 -0.5878
vn -0.3090 -0.0000 0.9511
vn 1.0000 -0.0000 -0.0000
vn -0.3090 -0.0000 -0.9511
vn 0.0110 -0.9994 -0.0340
vn -0.0358 -0.9994 -0.0000
vn 0.0110 -0.9994 0.0340
vn 0.0289 -0.9994 -0.0210
vn -0.0289 -0.9994 -0.0210
vn -0.0110 -0.9994 0.0340
vn 0.0358 -0.9994 -0.0000
vn -0.0110 -0.9994 -0.0340
vn -0.0289 -0.9994 0.0210
vn -0.9192 -0.3938 -0.0000
vn 0.8627 -0.3278 -0.3850
vn -0.8627 -0.3278 -0.3850
vn 0.9192 -0.3938 -0.0000
vn -0.8627 -0.3278 0.3850
vn 0.8627 -0.3278 0.3850
vn -0.0000 -0.1910 -0.9816
vn -0.0000 -0.1910 0.9816
vn -0.0000 -1.0000 -0.0000
vt 1.000000 0.750000
vt 1.000000 1.000000
vt 0.900000 1.000000
vt 0.900000 0.750000
vt 0.800000 1.000000
vt 0.800000 0.750000
vt 0.700000 1.000000
vt 0.700000 0.750000
vt 0.600000 1.000000
vt 0.600000 0.750000
vt 0.500000 1.000000
vt 0.500000 0.750000
vt 0.400000 1.000000
vt 0.400000 0.750000
vt 0.300000 1.000000
vt 0.300000 0.750000
vt 0.200000 1.000000
vt 0.200000 0.750000
vt 0.300000 1.000000
vt 0.100000 1.000000
vt 0.100000 0.750000
vt -0.000000 1.000000
vt -0.000000 0.750000
vt 0.600000 0.500000
vt 0.500000 0.500000
vt 0.391068 0.444164
vt 0.250000 0.490000
vt 0.108932 0.444164
vt 0.021746 0.324164
vt 0.021746 0.175836
vt 0.108932 0.055836
vt 0.250000 0.010000
vt 0.391068 0.055836
vt 0.478254 0.175836
vt 0.478254 0.324164
vt 0.500000 1.000000
vt 0.800000 1.000000
vt 0.100000 1.000000
vt 0.200000 1.000000
vt 0.100000 1.000000
vt 0.900000 1.000000
vt 0.900000 1.000000
vt 0.700000 1.000000
vt 0.600000 1.000000
vt 0.500000 1.000000
vt 0.400000 1.000000
vt 0.400000 1.000000
vt 0.500000 1.000000
vt 0.100000 0.500000
vt -0.000000 0.500000
vt 0.200000 0.500000
vt 0.300000 0.500000
vt 0.400000 0.500000
vt 0.700000 0.500000
vt 0.800000 0.500000
vt 0.900000 0.500000
vt 1.000000 0.500000
s 0
usemtl Material.001
f 171/110/143 172/109/143 182/109/143 181/110/143
f 188/105/160 189/104/160 197/104/160 196/105/160
f 178/105/144 179/104/144 189/104/144 188/105/144
f 175/77/145 176/78/145 186/78/145 185/77/145
f 172/109/146 173/108/146 183/108/146 182/109/146
f 179/104/147 180/102/147 190/102/147 189/104/147
f 176/78/148 177/106/148 187/106/148 186/78/148
f 173/108/149 174/107/149 184/107/149 183/108/149
f 180/102/150 171/103/150 181/103/150 190/102/150
f 177/106/131 178/105/131 188/105/131 187/106/131
f 174/107/142 175/77/142 185/77/142 184/107/142
f 182/109/161 183/108/161 192/108/161 191/109/161
f 189/104/162 190/102/162 198/102/162 197/104/162
f 183/108/163 184/107/163 193/107/163 192/108/163
f 187/106/164 188/105/164 196/105/164 195/106/164
f 184/107/165 185/77/165 194/77/165 193/107/165
f 181/103/166 182/109/166 191/109/166 198/102/166 190/102/166
f 185/77/167 186/78/167 187/106/167 195/106/167 194/77/167
f 191/109/168 192/108/168 193/107/168 194/77/168 195/106/168 196/105/168 197/104/168 198/102/168
usemtl Material.002
f 141/54/59 72/55/59 74/56/59 142/57/59
f 142/57/60 74/56/60 76/58/60 143/59/60
f 143/59/61 76/58/61 78/60/61 144/61/61
f 144/61/62 78/60/62 80/62/62 145/63/62
f 145/63/63 80/62/63 82/64/63 146/65/63
f 146/65/64 82/64/64 84/66/64 147/67/64
f 147/67/65 84/66/65 86/68/65 148/69/65
f 148/69/66 86/68/66 88/70/66 149/71/66
f 119/70/67 111/72/67 98/68/67 99/70/67
f 149/71/68 88/70/68 90/73/68 150/74/68
f 150/74/69 90/73/69 72/75/69 141/76/69
f 79/77/70 81/78/70 156/78/70 155/77/70
f 91/79/71 92/80/71 100/81/71 99/82/71 98/83/71 97/84/71 96/85/71 95/86/71 94/87/71 93/88/71
f 111/72/72 112/66/72 97/66/72 98/68/72
f 112/66/73 113/89/73 96/64/73 97/66/73
f 113/89/74 114/62/74 95/62/74 96/64/74
f 114/62/75 115/60/75 94/60/75 95/62/75
f 120/56/76 116/55/76 92/55/76 91/56/76
f 115/60/77 117/90/77 93/58/77 94/60/77
f 117/90/78 120/56/78 91/56/78 93/58/78
f 116/75/79 118/91/79 100/73/79 92/75/79
f 118/91/80 119/70/80 99/70/80 100/73/80
f 130/91/81 121/70/81 102/92/81 110/93/81
f 128/75/82 130/91/82 110/93/82 107/75/82
f 129/90/83 122/94/83 108/95/83 109/90/83
f 127/60/84 129/90/84 109/90/84 106/96/84
f 122/94/85 128/55/85 107/55/85 108/95/85
f 126/97/86 127/60/86 106/96/86 105/62/86
f 125/89/87 126/97/87 105/62/87 104/98/87
f 124/99/88 125/89/88 104/98/88 103/66/88
f 123/68/89 124/99/89 103/66/89 101/68/89
f 121/70/90 123/68/90 101/68/90 102/92/90
f 110/93/91 102/92/91 119/70/91 118/91/91
f 107/75/92 110/93/92 118/91/92 116/75/92
f 109/90/93 108/95/93 120/56/93 117/90/93
f 106/96/94 109/90/94 117/90/94 115/60/94
f 108/95/95 107/55/95 116/55/95 120/56/95
f 105/62/96 106/96/96 115/60/96 114/62/96
f 104/98/97 105/62/97 114/62/97 113/89/97
f 103/66/98 104/98/98 113/89/98 112/66/98
f 101/68/99 103/66/99 112/66/99 111/72/99
f 102/92/100 101/68/100 111/72/100 119/70/100
f 131/70/101 133/68/101 123/68/101 121/70/101
f 133/68/102 134/100/102 124/99/102 123/68/102
f 134/100/103 135/101/103 125/89/103 124/99/103
f 135/101/104 136/62/104 126/97/104 125/89/104
f 136/62/105 137/60/105 127/60/105 126/97/105
f 132/94/106 138/55/106 128/55/106 122/94/106
f 137/60/107 139/90/107 129/90/107 127/60/107
f 139/90/108 132/94/108 122/94/108 129/90/108
f 138/75/109 140/93/109 130/91/109 128/75/109
f 140/93/110 131/70/110 121/70/110 130/91/110
f 90/73/111 88/70/111 131/70/111 140/93/111
f 72/75/112 90/73/112 140/93/112 138/75/112
f 76/58/113 74/56/113 132/94/113 139/90/113
f 78/60/114 76/58/114 139/90/114 137/60/114
f 74/56/115 72/55/115 138/55/115 132/94/115
f 80/62/116 78/60/116 137/60/116 136/62/116
f 82/64/117 80/62/117 136/62/117 135/101/117
f 84/66/118 82/64/118 135/101/118 134/100/118
f 86/68/119 84/66/119 134/100/119 133/68/119
f 88/70/120 86/68/120 133/68/120 131/70/120
f 89/102/121 150/74/121 141/76/121 71/103/121
f 87/104/122 149/71/122 150/74/122 89/102/122
f 85/105/123 148/69/123 149/71/123 87/104/123
f 83/106/124 147/67/124 148/69/124 85/105/124
f 81/78/125 146/65/125 147/67/125 83/106/125
f 79/77/126 145/63/126 146/65/126 81/78/126
f 77/107/127 144/61/127 145/63/127 79/77/127
f 75/108/128 143/59/128 144/61/128 77/107/128
f 73/109/129 142/57/129 143/59/129 75/108/129
f 71/110/130 141/54/130 142/57/130 73/109/130
f 157/106/131 158/105/131 168/105/131 167/106/131
f 77/107/132 79/77/132 155/77/132 154/107/132
f 71/110/133 73/109/133 152/109/133 151/110/133
f 75/108/134 77/107/134 154/107/134 153/108/134
f 73/109/135 75/108/135 153/108/135 152/109/135
f 89/102/136 71/103/136 151/103/136 160/102/136
f 87/104/137 89/102/137 160/102/137 159/104/137
f 85/105/138 87/104/138 159/104/138 158/105/138
f 83/106/139 85/105/139 158/105/139 157/106/139
f 81/78/140 83/106/140 157/106/140 156/78/140
f 164/107/141 165/77/141 175/77/141 174/107/141
f 154/107/142 155/77/142 165/77/142 164/107/142
f 151/110/143 152/109/143 162/109/143 161/110/143
f 158/105/144 159/104/144 169/104/144 168/105/144
f 155/77/145 156/78/145 166/78/145 165/77/145
f 152/109/146 153/108/146 163/108/146 162/109/146
f 159/104/147 160/102/147 170/102/147 169/104/147
f 156/78/148 157/106/148 167/106/148 166/78/148
f 153/108/149 154/107/149 164/107/149 163/108/149
f 160/102/150 151/103/150 161/103/150 170/102/150
f 161/110/151 162/109/151 172/109/151 171/110/151
f 168/105/152 169/104/152 179/104/152 178/105/152
f 165/77/153 166/78/153 176/78/153 175/77/153
f 162/109/154 163/108/154 173/108/154 172/109/154
f 169/104/155 170/102/155 180/102/155 179/104/155
f 166/78/156 167/106/156 177/106/156 176/78/156
f 163/108/157 164/107/157 174/107/157 173/108/157
f 170/102/158 161/103/158 171/103/158 180/102/158
f 167/106/159 168/105/159 178/105/159 177/106/159
